<?xml version="1.0" encoding="utf-8"?>
<!-- Generator: Adobe Illustrator 16.0.0, SVG Export Plug-In . SVG Version: 6.00 Build 0)  -->
<!DOCTYPE svg PUBLIC "-//W3C//DTD SVG 1.1//EN" "http://www.w3.org/Graphics/SVG/1.1/DTD/svg11.dtd">
<svg version="1.1" id="Layer_1" xmlns="http://www.w3.org/2000/svg" xmlns:xlink="http://www.w3.org/1999/xlink" x="0px" y="0px"
	 width="1080px" height="864px" viewBox="0 0 1080 864" enable-background="new 0 0 1080 864" xml:space="preserve">
<path fill="#FF03D0" d="M324,78.5c-178.875,0-324,145.125-324,324s145.125,324,324,324h432c178.875,0,324-145.125,324-324
	s-145.125-324-324-324H324z M837,254c37.279,0,67.5,30.221,67.5,67.5S874.279,389,837,389s-67.5-30.221-67.5-67.5
	S799.721,254,837,254z M661.5,483.5c0-37.279,30.221-67.5,67.5-67.5s67.5,30.221,67.5,67.5S766.279,551,729,551
	S661.5,520.779,661.5,483.5z M283.5,308c0-22.443,18.056-40.5,40.5-40.5s40.5,18.057,40.5,40.5v54h54
	c22.443,0,40.5,18.057,40.5,40.5S440.943,443,418.5,443h-54v54c0,22.443-18.056,40.5-40.5,40.5s-40.5-18.057-40.5-40.5v-54h-54
	c-22.444,0-40.5-18.057-40.5-40.5s18.056-40.5,40.5-40.5h54V308z"/>
</svg>
